<svg width="64" height="64" xmlns="http://www.w3.org/2000/svg"><path fill="none" id="canvas_background" d="M-1-1h582v402H-1z"/><path fill="#000" id="Fill-173" d="M46.4 56.1H27.1c-.9 0-1.6-.7-1.6-1.6 0-2.5-1.2-3.9-3-6.1-1-1.2-2.1-2.6-3.2-4.3-3-4.9-5.7-10.5-6.3-12.7-.6-2.2-.2-3.5.4-4.3.7-1 1.9-1.5 3.3-1.5 1.9 0 3.9 1.6 5.6 3.7V12.8c0-2.7 2.2-4.8 4.8-4.8s4.8 2.2 4.8 4.8v6.7c.5-.2 1-.3 1.6-.3 1.7 0 3.2.9 4.1 2.2.7-.4 1.5-.6 2.4-.6 2.2 0 4.1 1.5 4.6 3.5.5-.2 1.1-.3 1.8-.3 2.7 0 4.8 2.2 4.8 4.8v4.8c0 4.1-.8 7.5-1.6 10.7-.8 3.3-1.6 6.3-1.6 10.1 0 .9-.7 1.7-1.6 1.7zm-17.7-3.2h16.2c.2-3.5.9-6.4 1.6-9.3.8-3.2 1.5-6.3 1.5-10v-5.1c0-.9-.7-1.6-1.6-1.6s-1.6.7-1.6 1.6v1.9c0 .9-.7 1.6-1.6 1.6s-1.6-.7-1.6-1.6v-5.1c0-.9-.7-1.6-1.6-1.6s-1.6.7-1.6 1.6v3.5c0 .9-.7 1.6-1.6 1.6s-1.6-.7-1.6-1.6v-5.1c0-.9-.7-1.6-1.6-1.6s-1.6.7-1.6 1.6v3.5c0 .9-.7 1.6-1.6 1.6s-1.6-.7-1.6-1.6V12.4c0-.9-.7-1.6-1.6-1.6s-1.6.7-1.6 1.6v24.4c0 .9-.7 1.6-1.6 1.6s-1.6-.7-1.6-1.6v-1.3c-1.4-3.7-4.6-6.9-5.6-6.9-.4 0-.6.1-.7.4-.1.2-.2.7 0 1.4.5 1.7 3 6.9 6.1 12 1 1.6 2 2.8 3 4 1.6 2 3 3.8 3.5 6.5z" class="st0"/></svg>